<svg width="295" height="230" viewBox="0 0 295 230" fill="none" xmlns="http://www.w3.org/2000/svg">
<mask id="path-1-outside-1_111_1593" maskUnits="userSpaceOnUse" x="134" y="0" width="142" height="158" fill="black">
<rect fill="white" x="134" width="142" height="158"/>
<path fill-rule="evenodd" clip-rule="evenodd" d="M270.716 128.497C268.908 128.625 267.083 128.69 265.243 128.69C223.059 128.69 188.862 94.4932 188.862 52.3091C188.862 33.5146 195.65 16.3056 206.908 3C167.279 5.80564 136 38.8441 136 79.188C136 121.372 170.197 155.569 212.381 155.569C235.771 155.569 256.705 145.056 270.716 128.497Z"/>
</mask>
<path fill-rule="evenodd" clip-rule="evenodd" d="M270.716 128.497C268.908 128.625 267.083 128.69 265.243 128.69C223.059 128.69 188.862 94.4932 188.862 52.3091C188.862 33.5146 195.65 16.3056 206.908 3C167.279 5.80564 136 38.8441 136 79.188C136 121.372 170.197 155.569 212.381 155.569C235.771 155.569 256.705 145.056 270.716 128.497Z" fill="url(#paint0_linear_111_1593)"/>
<path d="M270.716 128.497L272.243 129.789L275.307 126.167L270.574 126.502L270.716 128.497ZM206.908 3L208.435 4.29186L211.5 0.66994L206.767 1.00499L206.908 3ZM270.574 126.502C268.814 126.627 267.036 126.69 265.243 126.69V130.69C267.13 130.69 269.002 130.623 270.857 130.492L270.574 126.502ZM265.243 126.69C224.164 126.69 190.862 93.3886 190.862 52.3091H186.862C186.862 95.5977 221.954 130.69 265.243 130.69V126.69ZM190.862 52.3091C190.862 34.0051 197.471 17.2499 208.435 4.29186L205.382 1.70814C193.829 15.3613 186.862 33.0241 186.862 52.3091H190.862ZM138 79.188C138 39.9013 168.459 7.72704 207.05 4.99501L206.767 1.00499C166.098 3.88423 134 37.7868 134 79.188H138ZM212.381 153.569C171.302 153.569 138 120.268 138 79.188H134C134 122.477 169.092 157.569 212.381 157.569V153.569ZM269.189 127.205C255.542 143.334 235.158 153.569 212.381 153.569V157.569C236.384 157.569 257.868 146.778 272.243 129.789L269.189 127.205Z" fill="url(#paint1_linear_111_1593)" mask="url(#path-1-outside-1_111_1593)"/>
<path d="M104.057 15.2914L99.5579 6.20551C98.1019 3.26483 93.8981 3.26483 92.4421 6.20551L87.9432 15.2914C87.6572 15.869 87.1035 16.2709 86.4611 16.364L76.4014 17.821C73.1501 18.2919 71.8426 22.2812 74.2028 24.5744L81.4821 31.6467C81.9455 32.097 82.1562 32.7447 82.0471 33.3787L80.3287 43.3651C79.771 46.6059 83.1804 49.0615 86.0852 47.5393L95.0829 42.8244C95.6569 42.5236 96.3431 42.5236 96.9171 42.8244L105.915 47.5393C108.82 49.0615 112.229 46.6059 111.671 43.3651L109.953 33.3787C109.844 32.7447 110.055 32.097 110.518 31.6467L117.797 24.5744C120.157 22.2812 118.85 18.2919 115.599 17.821L105.539 16.364C104.897 16.2709 104.343 15.869 104.057 15.2914Z" fill="url(#paint2_linear_111_1593)" stroke="url(#paint3_linear_111_1593)" stroke-width="2"/>
<path d="M282.095 76.2529L278.517 68.8976C277.286 66.3675 273.714 66.3675 272.483 68.8976L268.905 76.2529C268.703 76.6667 268.318 76.9467 267.88 77.0113L259.878 78.1907C257.106 78.5993 256.039 82.0251 258.013 83.9764L263.803 89.7017C264.126 90.021 264.277 90.4854 264.199 90.9438L262.832 99.028C262.368 101.771 265.22 103.932 267.715 102.602L274.872 98.7851C275.266 98.5751 275.734 98.5751 276.128 98.7851L283.285 102.602C285.779 103.932 288.632 101.771 288.168 99.028L286.801 90.9438C286.723 90.4854 286.874 90.021 287.197 89.7017L292.987 83.9764C294.961 82.0251 293.894 78.5993 291.122 78.1907L283.12 77.0113C282.682 76.9467 282.297 76.6667 282.095 76.2529Z" fill="url(#paint4_linear_111_1593)" stroke="url(#paint5_linear_111_1593)" stroke-width="2"/>
<g filter="url(#filter0_bd_111_1593)">
<mask id="path-5-outside-2_111_1593" maskUnits="userSpaceOnUse" x="15" y="56" width="255" height="155" fill="black">
<rect fill="white" x="15" y="56" width="255" height="155"/>
<path fill-rule="evenodd" clip-rule="evenodd" d="M197.882 127.014C197.882 129.423 197.758 131.804 197.517 134.149C204.953 127.687 214.664 123.775 225.288 123.775C248.68 123.775 267.643 142.738 267.643 166.13C267.643 189.523 248.68 208.486 225.288 208.486H60.6379C60.6256 208.486 60.6133 208.486 60.601 208.486C60.5887 208.486 60.5764 208.486 60.5641 208.486H60.3518V208.485C36.3863 208.351 17 188.882 17 164.885C17 140.976 36.2441 121.562 60.0878 121.287C62.999 85.8508 92.6809 58 128.868 58C166.983 58 197.882 88.8987 197.882 127.014Z"/>
</mask>
<path fill-rule="evenodd" clip-rule="evenodd" d="M197.882 127.014C197.882 129.423 197.758 131.804 197.517 134.149C204.953 127.687 214.664 123.775 225.288 123.775C248.68 123.775 267.643 142.738 267.643 166.13C267.643 189.523 248.68 208.486 225.288 208.486H60.6379C60.6256 208.486 60.6133 208.486 60.601 208.486C60.5887 208.486 60.5764 208.486 60.5641 208.486H60.3518V208.485C36.3863 208.351 17 188.882 17 164.885C17 140.976 36.2441 121.562 60.0878 121.287C62.999 85.8508 92.6809 58 128.868 58C166.983 58 197.882 88.8987 197.882 127.014Z" fill="url(#paint6_linear_111_1593)" shape-rendering="crispEdges"/>
<path d="M197.517 134.149L195.528 133.945L195.011 138.977L198.829 135.659L197.517 134.149ZM60.3518 208.486H58.3518V210.486H60.3518V208.486ZM60.3518 208.485H62.3518V206.496L60.363 206.485L60.3518 208.485ZM60.0878 121.287L60.1109 123.287L61.932 123.266L62.0811 121.45L60.0878 121.287ZM199.507 134.353C199.755 131.94 199.882 129.492 199.882 127.014H195.882C195.882 129.355 195.762 131.667 195.528 133.945L199.507 134.353ZM225.288 121.775C214.163 121.775 203.991 125.873 196.206 132.639L198.829 135.659C205.915 129.501 215.164 125.775 225.288 125.775V121.775ZM269.643 166.13C269.643 141.634 249.785 121.775 225.288 121.775V125.775C247.576 125.775 265.643 143.843 265.643 166.13H269.643ZM225.288 210.486C249.785 210.486 269.643 190.627 269.643 166.13H265.643C265.643 188.418 247.576 206.486 225.288 206.486V210.486ZM225.288 206.486H60.6379V210.486H225.288V206.486ZM60.601 210.486C60.6079 210.486 60.6146 210.486 60.6207 210.486C60.6269 210.486 60.6324 210.486 60.6379 210.486V206.486C60.631 206.486 60.6242 206.486 60.6182 206.486C60.6119 206.486 60.6064 206.486 60.601 206.486V210.486ZM60.5641 210.486C60.5695 210.486 60.5751 210.486 60.5813 210.486C60.5874 210.486 60.5941 210.486 60.601 210.486V206.486C60.5956 206.486 60.59 206.486 60.5838 206.486C60.5777 206.486 60.571 206.486 60.5641 206.486V210.486ZM60.5641 206.486H60.3518V210.486H60.5641V206.486ZM62.3518 208.486V208.485H58.3518V208.486H62.3518ZM15 164.885C15 189.983 35.2756 210.345 60.3407 210.485L60.363 206.485C37.4971 206.357 19 187.781 19 164.885H15ZM60.0647 119.287C35.1268 119.574 15 139.879 15 164.885H19C19 142.073 37.3614 123.549 60.1109 123.287L60.0647 119.287ZM128.868 56C91.6312 56 61.0902 84.6581 58.0945 121.123L62.0811 121.45C64.9077 87.0436 93.7306 60 128.868 60V56ZM199.882 127.014C199.882 87.7941 168.088 56 128.868 56V60C165.879 60 195.882 90.0033 195.882 127.014H199.882Z" fill="url(#paint7_linear_111_1593)" mask="url(#path-5-outside-2_111_1593)"/>
</g>
<defs>
<filter id="filter0_bd_111_1593" x="0" y="45" width="284.643" height="184.486" filterUnits="userSpaceOnUse" color-interpolation-filters="sRGB">
<feFlood flood-opacity="0" result="BackgroundImageFix"/>
<feGaussianBlur in="BackgroundImage" stdDeviation="5"/>
<feComposite in2="SourceAlpha" operator="in" result="effect1_backgroundBlur_111_1593"/>
<feColorMatrix in="SourceAlpha" type="matrix" values="0 0 0 0 0 0 0 0 0 0 0 0 0 0 0 0 0 0 127 0" result="hardAlpha"/>
<feOffset dy="4"/>
<feGaussianBlur stdDeviation="7.5"/>
<feComposite in2="hardAlpha" operator="out"/>
<feColorMatrix type="matrix" values="0 0 0 0 0 0 0 0 0 0 0 0 0 0 0 0 0 0 0.1 0"/>
<feBlend mode="normal" in2="effect1_backgroundBlur_111_1593" result="effect2_dropShadow_111_1593"/>
<feBlend mode="normal" in="SourceGraphic" in2="effect2_dropShadow_111_1593" result="shape"/>
</filter>
<linearGradient id="paint0_linear_111_1593" x1="217.533" y1="51.6371" x2="185.278" y2="155.569" gradientUnits="userSpaceOnUse">
<stop stop-color="#FFEFB8"/>
<stop offset="1" stop-color="#FFD600"/>
</linearGradient>
<linearGradient id="paint1_linear_111_1593" x1="129.504" y1="-20.2642" x2="247.996" y2="182.224" gradientUnits="userSpaceOnUse">
<stop stop-color="#FFF2AF"/>
<stop offset="1" stop-color="#CEBA00"/>
</linearGradient>
<linearGradient id="paint2_linear_111_1593" x1="102" y1="18" x2="85" y2="47" gradientUnits="userSpaceOnUse">
<stop stop-color="#FFF59F"/>
<stop offset="1" stop-color="#EDD500"/>
</linearGradient>
<linearGradient id="paint3_linear_111_1593" x1="79.5" y1="2" x2="110.5" y2="62" gradientUnits="userSpaceOnUse">
<stop stop-color="#FFF6A6"/>
<stop offset="1" stop-color="#D1BC00"/>
</linearGradient>
<linearGradient id="paint4_linear_111_1593" x1="280.273" y1="78.5238" x2="266.394" y2="101.788" gradientUnits="userSpaceOnUse">
<stop stop-color="#FFF59F"/>
<stop offset="1" stop-color="#EDD500"/>
</linearGradient>
<linearGradient id="paint5_linear_111_1593" x1="262.375" y1="65.5714" x2="287.723" y2="113.78" gradientUnits="userSpaceOnUse">
<stop stop-color="#FFF6A6"/>
<stop offset="1" stop-color="#D1BC00"/>
</linearGradient>
<linearGradient id="paint6_linear_111_1593" x1="96.5248" y1="73.5" x2="176.025" y2="203" gradientUnits="userSpaceOnUse">
<stop stop-color="#52ACFF"/>
<stop offset="1" stop-color="#052D93" stop-opacity="0.71"/>
</linearGradient>
<linearGradient id="paint7_linear_111_1593" x1="177.525" y1="258.5" x2="99.5247" y2="38.5" gradientUnits="userSpaceOnUse">
<stop stop-color="#0066FF"/>
<stop offset="1" stop-color="#00378A" stop-opacity="0.34"/>
</linearGradient>
</defs>
</svg>
