<svg width="324" height="185" viewBox="0 0 324 185" fill="none" xmlns="http://www.w3.org/2000/svg">
<g filter="url(#filter0_bd_111_1620)">
<mask id="path-1-outside-1_111_1620" maskUnits="userSpaceOnUse" x="168" y="11" width="148" height="90" fill="black">
<rect fill="white" x="168" y="11" width="148" height="90"/>
<path fill-rule="evenodd" clip-rule="evenodd" d="M273.92 52.6501C273.92 54.0342 273.85 55.4017 273.711 56.7492C277.983 53.0367 283.562 50.7892 289.666 50.7892C303.105 50.7892 314 61.6839 314 75.1232C314 88.5625 303.105 99.4572 289.666 99.4572L195.069 99.4572C195.063 99.4572 195.056 99.4572 195.05 99.4572C195.043 99.4572 195.037 99.4572 195.03 99.4572H194.907V99.4568C181.138 99.3798 170 88.1943 170 74.4075C170 60.6714 181.056 49.5175 194.755 49.3595C196.427 29.0009 213.48 13 234.27 13C256.169 13 273.92 30.752 273.92 52.6501Z"/>
</mask>
<path fill-rule="evenodd" clip-rule="evenodd" d="M273.92 52.6501C273.92 54.0342 273.85 55.4017 273.711 56.7492C277.983 53.0367 283.562 50.7892 289.666 50.7892C303.105 50.7892 314 61.6839 314 75.1232C314 88.5625 303.105 99.4572 289.666 99.4572L195.069 99.4572C195.063 99.4572 195.056 99.4572 195.05 99.4572C195.043 99.4572 195.037 99.4572 195.03 99.4572H194.907V99.4568C181.138 99.3798 170 88.1943 170 74.4075C170 60.6714 181.056 49.5175 194.755 49.3595C196.427 29.0009 213.48 13 234.27 13C256.169 13 273.92 30.752 273.92 52.6501Z" fill="url(#paint0_linear_111_1620)" shape-rendering="crispEdges"/>
<path d="M273.711 56.7492L272.568 56.6318L272.271 59.523L274.465 57.6165L273.711 56.7492ZM289.666 99.4572L289.666 98.3082L289.666 98.3082L289.666 99.4572ZM195.069 99.4572L195.069 100.606L195.069 100.606L195.069 99.4572ZM194.907 99.4572H193.757V100.606H194.907V99.4572ZM194.907 99.4568H196.056V98.3142L194.913 98.3078L194.907 99.4568ZM194.755 49.3595L194.768 50.5085L195.814 50.4964L195.9 49.4536L194.755 49.3595ZM274.854 56.8666C274.997 55.4801 275.069 54.0734 275.069 52.6501H272.771C272.771 53.9949 272.703 55.3232 272.568 56.6318L274.854 56.8666ZM289.666 49.6402C283.275 49.6402 277.43 51.9946 272.957 55.8819L274.465 57.6165C278.536 54.0787 283.849 51.9383 289.666 51.9383V49.6402ZM315.149 75.1232C315.149 61.0493 303.74 49.6402 289.666 49.6402V51.9383C302.471 51.9383 312.851 62.3185 312.851 75.1232H315.149ZM289.666 100.606C303.74 100.606 315.149 89.1971 315.149 75.1232H312.851C312.851 87.9279 302.471 98.3082 289.666 98.3082V100.606ZM289.666 98.3082L195.069 98.3082L195.069 100.606L289.666 100.606L289.666 98.3082ZM195.05 100.606C195.053 100.606 195.057 100.606 195.06 100.606C195.064 100.606 195.067 100.606 195.069 100.606V98.3082C195.066 98.3082 195.062 98.3082 195.059 98.3082C195.056 98.3082 195.053 98.3082 195.05 98.3082V100.606ZM195.03 100.606C195.033 100.606 195.036 100.606 195.039 100.606C195.042 100.606 195.046 100.606 195.05 100.606V98.3082C195.047 98.3082 195.044 98.3082 195.04 98.3082C195.037 98.3082 195.034 98.3082 195.03 98.3082V100.606ZM195.03 98.3082H194.907V100.606H195.03V98.3082ZM196.056 99.4572V99.4568H193.757V99.4572H196.056ZM168.851 74.4075C168.851 88.8268 180.5 100.525 194.9 100.606L194.913 98.3078C181.776 98.2343 171.149 87.5619 171.149 74.4075H168.851ZM194.742 48.2106C180.414 48.3758 168.851 60.0412 168.851 74.4075H171.149C171.149 61.3015 181.698 50.6592 194.768 50.5085L194.742 48.2106ZM234.27 11.851C212.877 11.851 195.331 28.3156 193.61 49.2655L195.9 49.4536C197.524 29.6861 214.083 14.149 234.27 14.149V11.851ZM275.069 52.6501C275.069 30.1174 256.803 11.851 234.27 11.851V14.149C255.534 14.149 272.771 31.3866 272.771 52.6501H275.069Z" fill="url(#paint1_linear_111_1620)" mask="url(#path-1-outside-1_111_1620)"/>
</g>
<g filter="url(#filter1_bd_111_1620)">
<mask id="path-3-outside-2_111_1620" maskUnits="userSpaceOnUse" x="15" y="11" width="255" height="155" fill="black">
<rect fill="white" x="15" y="11" width="255" height="155"/>
<path fill-rule="evenodd" clip-rule="evenodd" d="M197.882 82.0141C197.882 84.4233 197.758 86.8036 197.517 89.149C204.953 82.6871 214.664 78.7752 225.288 78.7752C248.68 78.7752 267.643 97.7383 267.643 121.13C267.643 144.523 248.68 163.486 225.288 163.486H60.6379C60.6256 163.486 60.6133 163.486 60.601 163.486C60.5887 163.486 60.5764 163.486 60.5641 163.486H60.3518V163.485C36.3863 163.351 17 143.882 17 119.885C17 95.9758 36.2441 76.5617 60.0878 76.2867C62.999 40.8508 92.6809 13 128.868 13C166.983 13 197.882 43.8987 197.882 82.0141Z"/>
</mask>
<path fill-rule="evenodd" clip-rule="evenodd" d="M197.882 82.0141C197.882 84.4233 197.758 86.8036 197.517 89.149C204.953 82.6871 214.664 78.7752 225.288 78.7752C248.68 78.7752 267.643 97.7383 267.643 121.13C267.643 144.523 248.68 163.486 225.288 163.486H60.6379C60.6256 163.486 60.6133 163.486 60.601 163.486C60.5887 163.486 60.5764 163.486 60.5641 163.486H60.3518V163.485C36.3863 163.351 17 143.882 17 119.885C17 95.9758 36.2441 76.5617 60.0878 76.2867C62.999 40.8508 92.6809 13 128.868 13C166.983 13 197.882 43.8987 197.882 82.0141Z" fill="url(#paint2_linear_111_1620)" shape-rendering="crispEdges"/>
<path d="M197.517 89.149L195.528 88.9447L195.011 93.9771L198.829 90.6586L197.517 89.149ZM60.3518 163.486H58.3518V165.486H60.3518V163.486ZM60.3518 163.485H62.3518V161.496L60.363 161.485L60.3518 163.485ZM60.0878 76.2867L60.1109 78.2866L61.932 78.2656L62.0811 76.4504L60.0878 76.2867ZM199.507 89.3534C199.755 86.9401 199.882 84.4916 199.882 82.0141H195.882C195.882 84.3549 195.762 86.667 195.528 88.9447L199.507 89.3534ZM225.288 76.7752C214.163 76.7752 203.991 80.8733 196.206 87.6395L198.829 90.6586C205.915 84.5008 215.164 80.7752 225.288 80.7752V76.7752ZM269.643 121.13C269.643 96.6337 249.785 76.7752 225.288 76.7752V80.7752C247.576 80.7752 265.643 98.8429 265.643 121.13H269.643ZM225.288 165.486C249.785 165.486 269.643 145.627 269.643 121.13H265.643C265.643 143.418 247.576 161.486 225.288 161.486V165.486ZM225.288 161.486H60.6379V165.486H225.288V161.486ZM60.601 165.486C60.6079 165.486 60.6146 165.486 60.6207 165.486C60.6269 165.486 60.6324 165.486 60.6379 165.486V161.486C60.631 161.486 60.6242 161.486 60.6182 161.486C60.6119 161.486 60.6064 161.486 60.601 161.486V165.486ZM60.5641 165.486C60.5695 165.486 60.5751 165.486 60.5813 165.486C60.5874 165.486 60.5941 165.486 60.601 165.486V161.486C60.5956 161.486 60.59 161.486 60.5838 161.486C60.5777 161.486 60.571 161.486 60.5641 161.486V165.486ZM60.5641 161.486H60.3518V165.486H60.5641V161.486ZM62.3518 163.486V163.485H58.3518V163.486H62.3518ZM15 119.885C15 144.983 35.2756 165.345 60.3407 165.485L60.363 161.485C37.4971 161.357 19 142.781 19 119.885H15ZM60.0647 74.2868C35.1268 74.5744 15 94.879 15 119.885H19C19 97.0727 37.3614 78.5489 60.1109 78.2866L60.0647 74.2868ZM128.868 11C91.6312 11 61.0902 39.6581 58.0945 76.1229L62.0811 76.4504C64.9077 42.0436 93.7306 15 128.868 15V11ZM199.882 82.0141C199.882 42.7941 168.088 11 128.868 11V15C165.879 15 195.882 45.0033 195.882 82.0141H199.882Z" fill="url(#paint3_linear_111_1620)" mask="url(#path-3-outside-2_111_1620)"/>
</g>
<defs>
<filter id="filter0_bd_111_1620" x="160.233" y="5.53122" width="163.534" height="105.991" filterUnits="userSpaceOnUse" color-interpolation-filters="sRGB">
<feFlood flood-opacity="0" result="BackgroundImageFix"/>
<feGaussianBlur in="BackgroundImage" stdDeviation="2.87261"/>
<feComposite in2="SourceAlpha" operator="in" result="effect1_backgroundBlur_111_1620"/>
<feColorMatrix in="SourceAlpha" type="matrix" values="0 0 0 0 0 0 0 0 0 0 0 0 0 0 0 0 0 0 127 0" result="hardAlpha"/>
<feOffset dy="2.29809"/>
<feGaussianBlur stdDeviation="4.30891"/>
<feComposite in2="hardAlpha" operator="out"/>
<feColorMatrix type="matrix" values="0 0 0 0 0 0 0 0 0 0 0 0 0 0 0 0 0 0 0.1 0"/>
<feBlend mode="normal" in2="effect1_backgroundBlur_111_1620" result="effect2_dropShadow_111_1620"/>
<feBlend mode="normal" in="SourceGraphic" in2="effect2_dropShadow_111_1620" result="shape"/>
</filter>
<filter id="filter1_bd_111_1620" x="0" y="0" width="284.643" height="184.486" filterUnits="userSpaceOnUse" color-interpolation-filters="sRGB">
<feFlood flood-opacity="0" result="BackgroundImageFix"/>
<feGaussianBlur in="BackgroundImage" stdDeviation="5"/>
<feComposite in2="SourceAlpha" operator="in" result="effect1_backgroundBlur_111_1620"/>
<feColorMatrix in="SourceAlpha" type="matrix" values="0 0 0 0 0 0 0 0 0 0 0 0 0 0 0 0 0 0 127 0" result="hardAlpha"/>
<feOffset dy="4"/>
<feGaussianBlur stdDeviation="7.5"/>
<feComposite in2="hardAlpha" operator="out"/>
<feColorMatrix type="matrix" values="0 0 0 0 0 0 0 0 0 0 0 0 0 0 0 0 0 0 0.1 0"/>
<feBlend mode="normal" in2="effect1_backgroundBlur_111_1620" result="effect2_dropShadow_111_1620"/>
<feBlend mode="normal" in="SourceGraphic" in2="effect2_dropShadow_111_1620" result="shape"/>
</filter>
<linearGradient id="paint0_linear_111_1620" x1="215.689" y1="21.9051" x2="261.363" y2="96.3056" gradientUnits="userSpaceOnUse">
<stop stop-color="#52ACFF"/>
<stop offset="1" stop-color="#052D93" stop-opacity="0.71"/>
</linearGradient>
<linearGradient id="paint1_linear_111_1620" x1="262.225" y1="128.192" x2="217.412" y2="1.79684" gradientUnits="userSpaceOnUse">
<stop stop-color="#0066FF"/>
<stop offset="1" stop-color="#00378A" stop-opacity="0.34"/>
</linearGradient>
<linearGradient id="paint2_linear_111_1620" x1="96.5248" y1="28.5" x2="176.025" y2="158" gradientUnits="userSpaceOnUse">
<stop stop-color="#52ACFF"/>
<stop offset="1" stop-color="#052D93" stop-opacity="0.71"/>
</linearGradient>
<linearGradient id="paint3_linear_111_1620" x1="177.525" y1="213.5" x2="99.5247" y2="-6.49999" gradientUnits="userSpaceOnUse">
<stop stop-color="#0066FF"/>
<stop offset="1" stop-color="#00378A" stop-opacity="0.34"/>
</linearGradient>
</defs>
</svg>
