<svg width="209" height="209" viewBox="0 0 209 209" fill="none" xmlns="http://www.w3.org/2000/svg">
<path fill-rule="evenodd" clip-rule="evenodd" d="M104.385 0C101.932 0 99.9439 1.98842 99.9439 4.44125V18.3715L89.8096 5.57193C88.287 3.64889 85.4938 3.32428 83.5707 4.84688C81.6477 6.36949 81.3231 9.16273 82.8457 11.0858L99.9439 32.6807V40.8387L89.8097 28.0393C88.2871 26.1163 85.4939 25.7916 83.5708 27.3142C81.6478 28.8369 81.3232 31.6301 82.8458 33.5531L99.9439 55.148V93.4994L71.5216 65.0771L68.3421 37.7175C68.0589 35.2811 65.8542 33.5355 63.4178 33.8186C60.9814 34.1018 59.2358 36.3064 59.5189 38.7429L61.4035 54.9589L55.6345 49.1899L52.4549 21.8305C52.1718 19.394 49.9671 17.6485 47.5307 17.9316C45.0942 18.2148 43.3487 20.4194 43.6318 22.8559L45.5163 39.0718L36.9705 30.5259C35.2361 28.7915 32.424 28.7915 30.6896 30.5259C28.9552 32.2604 28.9552 35.0724 30.6896 36.8068L39.4413 45.5585L22.8568 43.6312C20.4203 43.348 18.2157 45.0936 17.9325 47.53C17.6494 49.9665 19.395 52.1711 21.8314 52.4543L49.5595 55.6767L55.3283 61.4455L38.7439 59.5182C36.3075 59.235 34.1028 60.9806 33.8197 63.417C33.5365 65.8535 35.2821 68.0581 37.7185 68.3413L65.4464 71.5636L93.8266 99.9438H53.3045L31.7098 82.8457C29.7867 81.3231 26.9935 81.6477 25.4709 83.5708C23.9483 85.4938 24.2729 88.2871 26.1959 89.8097L38.9953 99.9438H30.8368L9.24208 82.8457C7.31904 81.3231 4.52579 81.6477 3.00319 83.5708C1.48058 85.4938 1.8052 88.2871 3.72824 89.8097L16.5276 99.9438H4.44125C1.98841 99.9438 0 101.932 0 104.385C0 106.838 1.98842 108.826 4.44125 108.826H16.8177L3.72824 119.19C1.8052 120.713 1.48059 123.506 3.00319 125.429C4.5258 127.352 7.31904 127.677 9.24208 126.154L31.127 108.826H39.2854L26.1959 119.19C24.2729 120.713 23.9483 123.506 25.4709 125.429C26.9935 127.352 29.7867 127.677 31.7098 126.154L53.5947 108.826H93.7301L65.0773 137.479L37.7172 140.659C35.2808 140.942 33.5352 143.146 33.8183 145.583C34.1015 148.019 36.3061 149.765 38.7426 149.482L54.9592 147.597L49.1903 153.366L21.8301 156.546C19.3936 156.829 17.648 159.034 17.9312 161.47C18.2143 163.906 20.419 165.652 22.8554 165.369L39.0722 163.484L30.5258 172.031C28.7914 173.765 28.7914 176.577 30.5258 178.311C32.2602 180.046 35.0722 180.046 36.8066 178.311L45.5583 169.56L43.631 186.144C43.3478 188.581 45.0934 190.785 47.5299 191.068C49.9663 191.352 52.171 189.606 52.4541 187.169L55.6765 159.442L61.4455 153.673L59.5181 170.257C59.235 172.694 60.9806 174.898 63.417 175.181C65.8534 175.465 68.0581 173.719 68.3412 171.282L71.5636 143.555L99.9439 115.174V155.696L82.8458 177.29C81.3232 179.213 81.6478 182.007 83.5708 183.529C85.4939 185.052 88.2871 184.727 89.8097 182.804L99.9439 170.005V178.163L82.8458 199.758C81.3232 201.681 81.6478 204.474 83.5708 205.997C85.4939 207.519 88.2871 207.195 89.8097 205.271L99.9439 192.472V204.559C99.9439 207.012 101.932 209 104.385 209C106.838 209 108.826 207.012 108.826 204.559V192.182L119.19 205.271C120.713 207.195 123.506 207.519 125.429 205.997C127.352 204.474 127.677 201.681 126.154 199.758L108.826 177.873V169.715L119.19 182.804C120.713 184.727 123.506 185.052 125.429 183.529C127.352 182.007 127.677 179.213 126.154 177.29L108.826 155.406V114.944L136.134 142.251L139.356 169.979C139.639 172.415 141.844 174.161 144.28 173.877C146.717 173.594 148.462 171.39 148.179 168.953L146.252 152.369L152.021 158.138L155.243 185.865C155.526 188.302 157.731 190.047 160.167 189.764C162.604 189.481 164.349 187.276 164.066 184.84L162.139 168.256L172.194 178.311C173.928 180.046 176.741 180.046 178.475 178.311C180.209 176.577 180.209 173.765 178.475 172.03L168.625 162.18L184.842 164.065C187.278 164.348 189.483 162.602 189.766 160.166C190.049 157.729 188.303 155.525 185.867 155.242L158.507 152.062L152.738 146.293L168.955 148.178C171.391 148.461 173.596 146.715 173.879 144.279C174.162 141.843 172.416 139.638 169.98 139.355L142.62 136.175L115.271 108.826H153.561L175.446 126.154C177.369 127.677 180.163 127.352 181.685 125.429C183.208 123.506 182.883 120.713 180.96 119.19L167.871 108.826H176.029L197.914 126.154C199.837 127.677 202.63 127.352 204.153 125.429C205.676 123.506 205.351 120.713 203.428 119.19L190.338 108.826H204.559C207.012 108.826 209 106.838 209 104.385C209 101.932 207.012 99.9438 204.559 99.9438H190.629L203.428 89.8097C205.351 88.2871 205.676 85.4938 204.153 83.5708C202.63 81.6478 199.837 81.3231 197.914 82.8457L176.319 99.9438H168.161L180.96 89.8097C182.883 88.2871 183.208 85.4938 181.685 83.5708C180.163 81.6477 177.369 81.3231 175.446 82.8457L153.852 99.9438H115.174L142.251 72.8675L169.979 69.6451C172.415 69.362 174.161 67.1573 173.878 64.7209C173.594 62.2844 171.39 60.5389 168.953 60.822L152.369 62.7493L158.138 56.9805L185.866 53.7581C188.302 53.475 190.048 51.2703 189.765 48.8339C189.481 46.3975 187.277 44.6519 184.84 44.935L168.256 46.8624L178.311 36.807C180.046 35.0726 180.046 32.2606 178.311 30.5262C176.577 28.7918 173.765 28.7918 172.03 30.5262L162.181 40.3756L164.065 24.1597C164.348 21.7233 162.603 19.5186 160.166 19.2355C157.73 18.9523 155.525 20.6979 155.242 23.1344L152.063 50.4938L146.294 56.2626L148.178 40.0467C148.461 37.6103 146.716 35.4056 144.279 35.1225C141.843 34.8393 139.638 36.5849 139.355 39.0213L136.176 66.3808L108.826 93.7299V55.4379L126.154 33.5531C127.677 31.6301 127.352 28.8369 125.429 27.3142C123.506 25.7916 120.713 26.1163 119.19 28.0393L108.826 41.1287V32.9705L126.154 11.0858C127.677 9.16273 127.352 6.36949 125.429 4.84688C123.506 3.32428 120.713 3.64889 119.19 5.57193L108.826 18.6612V4.44125C108.826 1.98842 106.838 0 104.385 0Z" fill="url(#paint0_linear_1_158)"/>
<defs>
<linearGradient id="paint0_linear_1_158" x1="181.715" y1="17.2425" x2="31.7576" y2="163.543" gradientUnits="userSpaceOnUse">
<stop stop-color="#D6E9FF"/>
<stop offset="1" stop-color="#2898FF"/>
</linearGradient>
</defs>
</svg>
